<svg version="1.1" id="Layer_1" xmlns="http://www.w3.org/2000/svg" xmlns:xlink="http://www.w3.org/1999/xlink" x="0px" y="0px"
	 width="100%" viewBox="0 0 1024 1024" enable-background="new 0 0 1024 1024" xml:space="preserve">
<path fill="#FDFDFD" opacity="1.000000" stroke="none" 
	d="
M572.000000,1025.000000 
	C381.333344,1025.000000 191.166672,1025.000000 1.000000,1025.000000 
	C1.000000,683.666687 1.000000,342.333344 1.000000,1.000000 
	C342.333344,1.000000 683.666687,1.000000 1025.000000,1.000000 
	C1025.000000,342.333344 1025.000000,683.666687 1025.000000,1025.000000 
	C874.166687,1025.000000 723.333313,1025.000000 572.000000,1025.000000 
M685.933044,541.993225 
	C688.285889,541.972290 690.638672,541.951294 693.792358,541.900818 
	C701.829224,540.793091 701.829224,540.793091 702.562683,532.550537 
	C704.049072,530.375427 705.535461,528.200317 707.631348,525.735046 
	C714.557068,518.765686 714.556274,518.767273 723.478516,523.124390 
	C724.525513,523.635681 725.539062,524.328247 726.648865,524.577759 
	C730.714478,525.491821 734.814148,526.254150 739.772949,527.093567 
	C741.506836,527.118469 743.240662,527.143433 744.926331,527.998230 
	C745.988037,539.004883 746.060181,538.884827 756.936707,539.868469 
	C764.635132,540.564697 772.569824,540.854553 779.889587,543.035645 
	C792.083313,546.669006 803.868652,551.672668 816.296204,556.660339 
	C817.539673,559.907715 818.504822,563.445251 823.901306,563.164246 
	C826.981873,562.812378 827.820068,561.187073 827.723022,558.067688 
	C827.330688,545.459473 827.277466,532.840942 827.072693,520.226685 
	C826.886719,508.775146 826.666565,497.324158 826.627808,484.978149 
	C826.627808,446.797699 826.627808,408.617218 826.627808,370.436768 
	C825.976074,370.068390 825.324341,369.700043 824.672607,369.331665 
	C821.023804,373.512268 817.374939,377.692841 813.071594,382.049866 
	C806.894165,387.229675 800.716797,392.409454 793.800598,397.835236 
	C776.310913,396.272095 758.844055,393.842224 741.325378,393.382660 
	C722.758545,392.895569 704.096069,393.661163 685.563904,395.056549 
	C672.212891,396.061798 659.007080,398.995422 645.704590,400.218201 
	C647.714478,390.455139 649.724365,380.692078 652.148132,370.319397 
	C656.305969,352.842896 660.385010,335.347107 664.650146,317.896820 
	C667.358582,306.815643 666.316895,296.623840 659.060852,287.329041 
	C651.592407,277.762146 637.465210,272.240875 626.590759,277.308441 
	C614.204956,283.080292 602.804321,290.966095 590.159729,297.907349 
	C583.893005,298.846466 578.184753,300.898834 573.289429,306.080933 
	C571.034729,307.143738 568.673767,308.028625 566.543701,309.300201 
	C557.315247,314.809143 548.154236,320.431030 538.623352,325.359711 
	C537.969360,323.230774 537.315430,321.101837 536.608398,318.219727 
	C534.947021,312.815033 533.462158,307.348267 531.587708,302.018555 
	C527.657532,290.843872 521.091919,281.264923 510.626587,275.685242 
	C491.226044,265.341614 464.922516,270.303192 454.274536,295.149292 
	C450.310272,304.399506 448.060303,314.384369 444.249634,324.019318 
	C443.135468,323.775513 441.834015,323.821625 440.936798,323.242035 
	C433.827576,318.649292 426.909119,313.752655 419.705841,309.316772 
	C413.131531,305.268188 408.023132,298.147980 398.977570,298.295410 
	C388.052216,290.223846 377.035522,282.120605 364.242950,277.357666 
	C352.902740,273.135468 342.267120,275.101685 332.741394,283.288574 
	C321.937592,292.573914 320.250519,304.212311 322.924988,317.122070 
	C328.844788,345.697388 334.951111,374.234100 340.042786,402.784821 
	C331.389618,402.775970 322.707794,403.202271 314.091431,402.634735 
	C305.623230,402.076965 297.263153,403.271637 288.782410,403.031433 
	C262.345154,402.282684 235.848801,402.081879 209.423370,403.020325 
	C192.978836,403.604340 183.016037,411.935730 181.384781,429.079987 
	C180.476089,438.630249 181.351456,448.350311 181.220428,458.910339 
	C181.289612,473.608978 181.358795,488.307587 181.239639,503.894287 
	C178.971222,519.457458 192.042328,534.354004 210.012192,533.579102 
	C224.289429,532.963379 238.619339,533.627502 252.925827,533.620850 
	C291.020477,533.603210 329.115143,533.530212 367.556702,534.245605 
	C368.960754,540.578125 370.118896,546.977661 371.822021,553.228699 
	C374.990479,564.858154 376.515869,576.892883 382.852142,587.680054 
	C393.387085,605.615234 409.633453,615.059082 429.319885,620.764526 
	C429.838013,620.583008 430.356171,620.401428 430.874298,620.219849 
	C430.718933,624.395020 432.821716,623.884399 435.984070,623.289795 
	C443.587158,621.860107 451.306274,621.047485 459.180511,620.645447 
	C468.609314,633.457886 481.281006,638.773376 497.794403,637.109497 
	C499.859650,636.547791 502.033600,636.232666 503.970001,635.378784 
	C510.154541,632.651672 517.544373,631.898499 522.219604,625.122375 
	C532.846680,623.721313 543.473755,622.320190 554.843628,620.806946 
	C560.287048,618.776062 565.890381,617.089966 571.145203,614.652527 
	C590.533508,605.659424 603.332642,590.980774 608.159851,569.950317 
	C614.620972,541.801514 620.842834,513.597839 627.611572,486.232544 
	C627.776978,487.712555 628.084534,489.192383 628.086060,490.672577 
	C628.103577,507.617737 628.072632,524.562927 628.058960,541.508118 
	C628.053284,548.553223 628.057983,555.598328 628.057983,564.040527 
	C634.893677,560.002319 640.763672,556.496948 646.678040,553.068176 
	C648.103699,552.241577 649.624573,551.507690 651.189575,551.005005 
	C660.775757,547.926208 670.387207,544.926025 680.689331,541.988342 
	C682.272095,541.811768 683.854858,541.635132 685.933044,541.993225 
M469.926910,227.326187 
	C466.777557,219.627640 463.179565,212.076096 460.596100,204.192123 
	C457.586761,195.008560 453.805054,185.874985 454.647186,175.844452 
	C444.589355,172.387497 434.579803,168.776733 424.435913,165.594040 
	C422.215057,164.897217 418.782898,164.762131 417.150635,166.002640 
	C402.198364,177.366287 387.487000,189.049194 372.825989,200.789597 
	C371.665924,201.718567 371.410522,203.777206 370.916870,206.029312 
	C373.956421,214.467194 377.458405,222.774933 379.882111,231.386169 
	C381.665527,237.722626 384.371490,240.742859 391.457947,241.570740 
	C409.259338,243.650391 425.852478,249.839325 440.922943,259.710693 
	C443.635651,261.487549 445.519928,261.076843 447.947510,259.086273 
	C454.352509,253.834274 460.923828,248.774170 467.583557,243.846695 
	C474.829102,238.485748 474.911774,238.585434 471.207214,230.213074 
	C470.874634,229.461472 470.380310,228.781433 469.926910,227.326187 
M625.853271,154.293015 
	C617.807861,148.117645 609.822388,141.860886 601.658325,135.846619 
	C600.290894,134.839310 597.876404,134.070084 596.405762,134.563095 
	C572.900513,142.443008 549.476746,150.566010 526.015686,158.578659 
	C522.181030,159.888306 520.417297,161.984146 522.266724,166.917068 
	C523.616638,186.650513 525.017029,206.380753 526.263062,226.120758 
	C526.454285,229.149719 528.031799,230.396896 530.559570,231.383575 
	C543.341858,236.372940 556.084656,241.463318 570.305298,247.098389 
	C578.733887,238.332428 588.088684,228.871765 597.126465,219.117310 
	C604.174866,211.510040 612.329224,206.807236 622.975647,207.443405 
	C625.716492,207.607162 626.570984,206.546066 626.890808,203.749741 
	C628.305481,191.380356 629.669250,178.980682 631.848633,166.733810 
	C632.895996,160.848038 631.656189,157.145126 625.853271,154.293015 
M238.655075,314.557739 
	C236.578903,314.557739 234.502731,314.557739 231.576675,314.557739 
	C236.828690,318.870148 241.268082,322.718201 245.935638,326.266052 
	C248.434006,328.165039 248.361008,329.975098 247.419769,332.703125 
	C245.934204,337.008728 245.072739,341.529663 243.947128,345.959442 
	C244.355377,346.298065 244.763611,346.636688 245.171860,346.975311 
	C249.129639,344.519775 253.219803,342.250122 257.005707,339.553284 
	C260.378418,337.150787 263.028809,337.178741 266.256104,339.973969 
	C269.311798,342.620514 272.984467,344.554718 277.483521,347.527588 
	C275.831390,341.660583 274.961609,336.902405 273.136566,332.544250 
	C271.176941,327.864624 273.047852,325.109650 276.378357,322.350616 
	C279.242126,319.978210 281.885345,317.339508 285.340881,314.161072 
	C279.939514,314.161072 275.670624,313.961517 271.430389,314.224457 
	C268.066986,314.433014 266.344635,313.487396 265.480621,309.962616 
	C264.247223,304.931061 262.293091,300.076111 260.384277,294.359589 
	C259.235321,297.965698 258.351715,300.626709 257.539032,303.309235 
	C254.091629,314.688202 254.099319,314.690399 242.077316,314.581268 
	C241.244781,314.573700 240.412216,314.570099 238.655075,314.557739 
M769.168091,315.633026 
	C765.853455,315.821045 762.513916,315.817291 759.230103,316.242950 
	C754.551575,316.849487 751.959290,315.316376 750.828552,310.442535 
	C749.762573,305.847748 747.742371,301.474335 746.141968,297.003510 
	C743.231995,302.133209 741.319031,307.235840 739.742065,312.440338 
	C738.916016,315.166443 737.511292,316.062744 734.697510,315.940155 
	C729.467224,315.712189 724.219910,315.874725 717.719543,315.874725 
	C722.640015,319.498352 726.424255,322.709045 730.616516,325.245087 
	C734.299500,327.473053 734.477051,329.925354 733.013611,333.531158 
	C731.037354,338.400238 729.500793,343.447754 727.276306,349.857239 
	C733.279907,345.425140 738.130676,342.073914 742.705811,338.381104 
	C745.496704,336.128448 747.466431,336.550507 750.022949,338.777679 
	C753.557739,341.857056 757.482910,344.488220 762.270691,348.084961 
	C761.855591,345.407532 761.817017,344.250244 761.483826,343.185150 
	C760.592285,340.334778 759.704651,337.470978 758.581238,334.707733 
	C755.713379,327.653748 755.850403,327.134033 762.206543,323.202057 
	C765.735840,321.018799 769.216248,318.756531 772.718628,316.529907 
	C772.586670,316.226959 772.454712,315.924042 772.322754,315.621094 
	C771.531006,315.621094 770.739258,315.621094 769.168091,315.633026 
z"/>
<path fill="#F8012D" opacity="1.000000" stroke="none" 
	d="
M445.028625,324.034241 
	C448.060303,314.384369 450.310272,304.399506 454.274536,295.149292 
	C464.922516,270.303192 491.226044,265.341614 510.626587,275.685242 
	C521.091919,281.264923 527.657532,290.843872 531.587708,302.018555 
	C533.462158,307.348267 534.947021,312.815033 536.306030,318.546417 
	C534.415527,316.665222 531.980225,314.662689 531.386780,312.213745 
	C528.885193,301.890503 522.186523,294.123444 516.067444,284.713593 
	C515.590393,287.353577 515.083069,288.931854 515.052063,290.519501 
	C514.665710,310.309418 514.494873,330.104584 513.968384,349.890411 
	C513.526855,366.481415 512.753479,383.064697 512.014221,399.646393 
	C511.075775,420.694580 510.096466,441.741486 508.997101,462.781769 
	C508.114990,479.664398 507.316071,496.559662 505.949402,513.406311 
	C504.625336,529.727905 503.445862,546.133545 500.720245,562.251587 
	C496.986694,584.330078 492.105988,606.250671 477.959503,624.680237 
	C476.220093,626.946228 476.083771,629.465088 479.689789,630.368347 
	C483.505249,631.324158 487.321075,632.439331 491.206207,632.903320 
	C494.117310,633.250916 496.506561,633.594788 497.014374,637.010925 
	C481.281006,638.773376 468.609314,633.457886 459.176453,619.857300 
	C458.183655,590.687683 457.323059,562.300964 456.157410,533.926697 
	C455.476166,517.343079 454.333466,500.778046 453.352570,484.207397 
	C451.841858,458.685059 450.251709,433.167389 448.772827,407.643250 
	C447.831055,391.388947 446.941132,375.130646 446.194885,358.866455 
	C445.662445,347.262299 445.407410,335.645447 445.028625,324.034241 
z"/>
<path fill="#CC0228" opacity="1.000000" stroke="none" 
	d="
M651.734253,370.929016 
	C649.724365,380.692078 647.714478,390.455139 645.526733,400.941956 
	C641.500305,418.685638 637.565796,435.686798 633.834045,452.732330 
	C631.456238,463.593384 629.379272,474.520355 627.167358,485.417755 
	C620.842834,513.597839 614.620972,541.801514 608.159851,569.950317 
	C603.332642,590.980774 590.533508,605.659424 571.145203,614.652527 
	C565.890381,617.089966 560.287048,618.776062 554.407104,620.445312 
	C559.534180,581.443970 565.001892,542.790161 570.696045,504.169708 
	C574.351318,479.377777 578.536621,454.663483 582.131897,429.863312 
	C587.088623,395.671509 591.588135,361.413330 596.564087,327.224426 
	C597.863464,318.296661 598.304810,309.725342 593.890015,301.236206 
	C602.717590,295.381134 611.451355,289.999817 619.983704,284.316284 
	C628.416565,278.699036 637.087891,276.986908 646.609253,281.298828 
	C658.554321,286.708344 664.391052,299.309296 662.131042,310.453979 
	C660.059204,320.671082 656.524048,330.525696 655.646240,341.096954 
	C655.055298,348.213043 652.500549,355.146393 651.276184,362.239471 
	C650.795044,365.026581 651.544983,368.026184 651.734253,370.929016 
z"/>
<path fill="#F8022D" opacity="1.000000" stroke="none" 
	d="
M428.719086,620.867065 
	C409.633453,615.059082 393.387085,605.615234 382.852142,587.680054 
	C376.515869,576.892883 374.990479,564.858154 371.822021,553.228699 
	C370.118896,546.977661 368.960754,540.578125 367.390961,533.452271 
	C364.198883,517.013306 361.172516,501.367584 358.153870,485.325989 
	C354.729706,469.613464 351.297852,454.296814 347.873810,438.662415 
	C347.679962,437.540771 347.478271,436.736908 347.323090,435.528076 
	C346.704376,432.560242 346.039154,429.997437 345.495239,427.034546 
	C344.071503,418.685150 342.526459,410.735870 340.981384,402.786560 
	C334.951111,374.234100 328.844788,345.697388 322.924988,317.122070 
	C320.250519,304.212311 321.937592,292.573914 332.741394,283.288574 
	C342.267120,275.101685 352.902740,273.135468 364.242950,277.357666 
	C377.035522,282.120605 388.052216,290.223846 398.636505,298.711212 
	C395.170563,300.666687 392.088806,302.303040 388.909851,303.721558 
	C384.932892,305.496094 383.760834,308.500336 384.320038,312.628967 
	C389.755341,352.758026 395.044769,392.907074 400.580688,433.022186 
	C405.502899,468.690399 410.589569,504.336700 415.786743,539.965942 
	C418.924194,561.474548 422.383301,582.936462 425.759918,604.409668 
	C426.625549,609.914429 427.726349,615.382263 428.719086,620.867065 
z"/>
<path fill="#E7E6E5" opacity="1.000000" stroke="none" 
	d="
M429.019470,620.815796 
	C427.726349,615.382263 426.625549,609.914429 425.759918,604.409668 
	C422.383301,582.936462 418.924194,561.474548 415.786743,539.965942 
	C410.589569,504.336700 405.502899,468.690399 400.580688,433.022186 
	C395.044769,392.907074 389.755341,352.758026 384.320038,312.628967 
	C383.760834,308.500336 384.932892,305.496094 388.909851,303.721558 
	C392.088806,302.303040 395.170563,300.666687 398.645874,299.057861 
	C408.023132,298.147980 413.131531,305.268188 419.705841,309.316772 
	C426.909119,313.752655 433.827576,318.649292 440.936798,323.242035 
	C441.834015,323.821625 443.135468,323.775513 444.639130,324.026794 
	C445.407410,335.645447 445.662445,347.262299 446.194885,358.866455 
	C446.941132,375.130646 447.831055,391.388947 448.772827,407.643250 
	C450.251709,433.167389 451.841858,458.685059 453.352570,484.207397 
	C454.333466,500.778046 455.476166,517.343079 456.157410,533.926697 
	C457.323059,562.300964 458.183655,590.687683 459.075470,619.527588 
	C451.306274,621.047485 443.587158,621.860107 435.984070,623.289795 
	C432.821716,623.884399 430.718933,624.395020 430.874298,620.219849 
	C430.356171,620.401428 429.838013,620.583008 429.019470,620.815796 
z"/>
<path fill="#C7C7C6" opacity="1.000000" stroke="none" 
	d="
M593.708008,301.577606 
	C598.304810,309.725342 597.863464,318.296661 596.564087,327.224426 
	C591.588135,361.413330 587.088623,395.671509 582.131897,429.863312 
	C578.536621,454.663483 574.351318,479.377777 570.696045,504.169708 
	C565.001892,542.790161 559.534180,581.443970 554.035645,620.501404 
	C543.473755,622.320190 532.846680,623.721313 521.590088,624.714600 
	C521.660278,616.383972 522.475708,608.469238 523.038086,600.536682 
	C524.679260,577.385986 526.170593,554.224609 527.818542,531.074463 
	C528.723083,518.366760 529.824585,505.673126 531.135132,492.780579 
	C533.301147,487.631744 535.528809,482.776886 536.961609,477.697784 
	C539.792175,467.663605 542.285522,457.530121 544.733582,447.393127 
	C549.553467,427.434296 554.746826,407.546844 558.845276,387.438202 
	C562.542175,369.299438 564.812439,350.874451 568.051453,332.635986 
	C569.640381,323.689545 571.999390,314.879822 574.009888,306.008209 
	C578.184753,300.898834 583.893005,298.846466 590.773560,298.177673 
	C592.160950,299.491211 592.934448,300.534424 593.708008,301.577606 
z"/>
<path fill="#4DCAF4" opacity="1.000000" stroke="none" 
	d="
M627.389465,485.825134 
	C629.379272,474.520355 631.456238,463.593384 633.834045,452.732330 
	C637.565796,435.686798 641.500305,418.685638 645.542725,401.367310 
	C659.007080,398.995422 672.212891,396.061798 685.563904,395.056549 
	C704.096069,393.661163 722.758545,392.895569 741.325378,393.382660 
	C758.844055,393.842224 776.310913,396.272095 794.303223,398.199402 
	C794.916809,404.324402 795.027832,410.085205 794.664185,415.916992 
	C788.622864,415.455322 783.066284,414.687347 777.487183,414.452209 
	C771.120361,414.183868 764.733582,414.390076 757.610840,414.390076 
	C758.159546,417.026947 758.574097,419.019012 758.960938,421.426636 
	C759.011902,423.223633 759.090576,424.605072 759.113647,426.418823 
	C759.109558,429.163940 759.161072,431.476776 759.133606,434.205322 
	C758.970337,436.244781 758.886047,437.868469 758.421265,439.566284 
	C756.060547,439.377777 754.080200,439.115112 752.088135,438.454956 
	C752.001404,437.075439 752.155762,436.004028 751.813721,435.126007 
	C749.710205,429.726379 747.537292,424.352112 745.254028,419.026581 
	C745.011414,418.460663 743.905701,418.264801 742.856201,417.629822 
	C731.384216,417.181000 720.256958,416.954041 709.128540,416.835022 
	C702.399414,416.763031 702.148193,416.902985 702.253662,423.869812 
	C702.407410,434.016663 702.698364,444.168945 703.306824,454.296356 
	C703.471069,457.030121 704.993225,459.682312 705.903687,462.716675 
	C702.178040,466.838013 698.634338,470.836517 694.640747,474.319153 
	C691.580688,476.987701 691.174622,479.896881 692.650574,483.198883 
	C695.740479,490.111542 699.048462,496.926727 701.976257,504.119415 
	C696.628723,504.848541 691.571716,505.240265 686.242310,505.389893 
	C682.213684,504.863251 678.460938,504.402252 674.700806,504.332184 
	C667.628601,504.200378 660.552063,504.294189 653.425781,504.294189 
	C653.425781,512.305115 653.425781,519.547913 653.425781,527.374084 
	C655.599854,526.835815 657.370056,526.530151 659.046265,525.951904 
	C661.687805,525.040710 664.188110,523.596985 666.885742,522.994812 
	C674.944336,521.195923 683.069702,519.696350 691.614685,518.068848 
	C694.365356,518.046448 696.674683,517.940308 698.974548,518.043396 
	C703.884216,518.263550 706.542542,520.953308 707.021912,526.025208 
	C705.535461,528.200317 704.049072,530.375427 701.886475,532.781006 
	C694.626343,533.348083 688.045593,533.816467 681.457397,533.971741 
	C677.559021,534.063599 677.482300,536.019165 678.547607,538.822937 
	C678.948792,539.878845 679.504822,540.875793 679.990234,541.899658 
	C670.387207,544.926025 660.775757,547.926208 651.189575,551.005005 
	C649.624573,551.507690 648.103699,552.241577 646.678040,553.068176 
	C640.763672,556.496948 634.893677,560.002319 628.057983,564.040527 
	C628.057983,555.598328 628.053284,548.553223 628.058960,541.508118 
	C628.072632,524.562927 628.103577,507.617737 628.086060,490.672577 
	C628.084534,489.192383 627.776978,487.712555 627.389465,485.825134 
M653.352661,471.892365 
	C653.352661,475.168884 653.352661,478.445404 653.352661,482.442566 
	C663.856445,480.780212 673.794373,479.254456 683.697876,477.531006 
	C684.338440,477.419525 685.193665,475.752594 685.133850,474.864075 
	C684.784973,469.678558 684.192688,464.509399 683.677612,459.283691 
	C676.207947,460.246674 669.485779,461.108704 662.765015,461.980927 
	C654.394836,463.067200 654.395325,463.070801 653.352661,471.892365 
M659.475830,439.719696 
	C663.745728,439.147064 668.001648,438.419769 672.288208,438.030640 
	C685.288696,436.850555 685.204773,436.904266 684.806152,423.860291 
	C684.714783,420.870026 683.809692,419.451782 680.770020,419.847839 
	C672.568420,420.916534 664.361206,421.951843 656.182556,423.176178 
	C655.124878,423.334503 653.416626,424.488373 653.378296,425.249939 
	C653.125610,430.270203 653.247742,435.309296 653.247742,440.688751 
	C655.768188,440.274780 657.209106,440.038086 659.475830,439.719696 
z"/>
<path fill="#CE0229" opacity="1.000000" stroke="none" 
	d="
M530.837341,492.973175 
	C529.824585,505.673126 528.723083,518.366760 527.818542,531.074463 
	C526.170593,554.224609 524.679260,577.385986 523.038086,600.536682 
	C522.475708,608.469238 521.660278,616.383972 521.145020,624.706970 
	C517.544373,631.898499 510.154541,632.651672 503.970001,635.378784 
	C502.033600,636.232666 499.859650,636.547791 497.404388,637.060181 
	C496.506561,633.594788 494.117310,633.250916 491.206207,632.903320 
	C487.321075,632.439331 483.505249,631.324158 479.689789,630.368347 
	C476.083771,629.465088 476.220093,626.946228 477.959503,624.680237 
	C492.105988,606.250671 496.986694,584.330078 500.720245,562.251587 
	C503.445862,546.133545 504.625336,529.727905 505.949402,513.406311 
	C507.316071,496.559662 508.114990,479.664398 508.997101,462.781769 
	C510.096466,441.741486 511.075775,420.694580 512.014221,399.646393 
	C512.753479,383.064697 513.526855,366.481415 513.968384,349.890411 
	C514.494873,330.104584 514.665710,310.309418 515.052063,290.519501 
	C515.083069,288.931854 515.590393,287.353577 516.067444,284.713593 
	C522.186523,294.123444 528.885193,301.890503 531.386780,312.213745 
	C531.980225,314.662689 534.415527,316.665222 536.332520,318.923004 
	C537.315430,321.101837 537.969360,323.230774 538.718140,326.131287 
	C537.797119,348.617004 536.813477,370.332703 535.755920,392.044830 
	C534.827332,411.109558 533.786560,430.168823 532.850525,449.233215 
	C532.134827,463.811005 531.505249,478.393036 530.837341,492.973175 
z"/>
<path fill="#03A2EA" opacity="1.000000" stroke="none" 
	d="
M795.138916,415.846008 
	C795.027832,410.085205 794.916809,404.324402 794.672607,398.076416 
	C800.716797,392.409454 806.894165,387.229675 813.825928,381.994446 
	C816.200195,381.648285 817.947327,380.851654 819.401855,381.217743 
	C820.697693,381.543884 822.661011,383.181519 822.635620,384.197998 
	C822.267212,398.932800 821.345764,413.656403 821.119690,428.391266 
	C820.964661,438.491791 821.776428,448.603729 821.981628,458.714142 
	C822.167297,467.860229 822.116455,477.011078 822.147217,486.612305 
	C822.366882,511.347290 822.609253,535.629822 822.518066,559.897705 
	C820.064941,558.621826 817.945496,557.360596 815.825989,556.099365 
	C803.868652,551.672668 792.083313,546.669006 779.889587,543.035645 
	C772.569824,540.854553 764.635132,540.564697 756.936707,539.868469 
	C746.060181,538.884827 745.988037,539.004883 745.360535,527.606934 
	C750.536743,526.006287 755.278687,524.796936 760.484192,523.663574 
	C771.074768,524.124817 781.200684,524.544861 791.329651,524.870239 
	C793.812988,524.950073 797.080688,525.887695 797.181396,521.711914 
	C797.321228,515.916077 797.216553,510.114410 797.216553,503.899414 
	C790.391479,503.334656 783.990540,502.804962 777.610352,501.842590 
	C778.698547,494.461853 779.739929,487.509583 780.864868,480.570923 
	C781.013306,479.654755 781.588135,478.807709 782.317139,478.299561 
	C787.715759,478.670441 792.762817,478.670441 798.271057,478.670441 
	C797.868591,473.482605 797.725342,468.864532 797.014343,464.335602 
	C796.826111,463.136993 794.941711,461.380310 793.746277,461.304901 
	C788.144836,460.951599 782.511963,461.095703 776.746582,460.983337 
	C776.602905,460.904572 776.280945,460.965851 776.192688,460.609192 
	C773.446289,456.144104 770.788147,452.035675 768.053345,447.658386 
	C767.436096,446.907349 766.895569,446.425140 766.258667,445.607971 
	C765.486877,443.854309 764.811584,442.435577 764.590332,441.074646 
	C775.554871,441.132477 786.065369,441.132477 797.006348,441.132477 
	C797.006348,439.545685 797.006348,437.781982 797.075562,435.565796 
	C796.924194,432.418121 796.703491,429.722870 796.541382,426.640442 
	C796.379944,424.186127 796.160034,422.119080 796.029358,419.682465 
	C795.792053,418.157288 795.465515,417.001648 795.138916,415.846008 
z"/>
<path fill="#FEA416" opacity="1.000000" stroke="none" 
	d="
M181.427979,503.006226 
	C181.358795,488.307587 181.289612,473.608978 181.699966,458.450745 
	C183.728104,457.356140 186.213120,457.113403 186.670685,456.021271 
	C189.298309,449.749573 196.321869,448.678162 200.302811,444.460083 
	C200.421310,445.742126 200.451340,446.575012 200.451462,447.407867 
	C200.453049,458.036377 200.639999,458.220276 211.240891,458.246887 
	C220.905563,458.271149 230.570190,458.324097 240.234848,458.324280 
	C241.978790,458.324310 243.722717,458.129669 246.023590,457.991455 
	C246.023590,446.833771 246.023590,436.230347 246.023590,425.250214 
	C232.011337,425.250214 219.200836,425.145111 206.396454,425.377075 
	C204.708618,425.407654 203.052002,427.159729 201.059784,427.922363 
	C198.744202,424.333527 201.385666,422.382477 203.578461,421.479767 
	C205.664261,420.621094 208.804245,420.532227 210.765259,421.522186 
	C215.297287,423.810059 220.000305,423.894958 223.299149,420.098328 
	C227.550613,415.205292 233.544861,413.865448 239.153275,412.084930 
	C247.860672,409.320526 256.822052,408.658630 265.922455,410.944550 
	C270.144257,412.005066 275.495972,410.778168 278.768066,412.949829 
	C285.638733,417.509888 292.361450,421.979492 300.134949,424.451965 
	C291.376129,428.245758 284.699524,433.736176 279.714752,441.693695 
	C266.743378,462.400757 271.248993,492.131805 296.811951,506.231812 
	C296.844727,506.201447 296.838715,506.112885 296.914917,506.363068 
	C297.290070,506.782379 297.588989,506.951508 298.100037,507.380676 
	C299.871643,508.450592 301.431122,509.260406 302.976257,510.481201 
	C302.047150,511.591064 301.137726,512.890625 300.216858,512.898743 
	C286.488647,513.020020 272.755829,513.131287 259.031311,512.868530 
	C254.619370,512.784180 250.228333,511.607117 245.822083,510.466095 
	C245.816437,500.268372 245.816437,490.534454 245.816437,480.510986 
	C230.601898,480.510986 216.085022,480.510986 201.177689,480.510986 
	C200.996033,483.137451 200.827606,485.572479 200.307602,488.023621 
	C196.053955,490.484924 198.262009,492.244019 200.716858,494.408691 
	C200.743591,496.557281 200.677170,498.283112 200.236328,500.022034 
	C198.905182,501.797668 197.966034,503.569946 196.985535,505.319122 
	C196.322998,506.501099 195.848572,508.104279 194.823944,508.660431 
	C194.099548,509.053619 192.010239,508.352844 191.537064,507.548340 
	C189.179825,503.540314 185.408203,503.139465 181.427979,503.006226 
z"/>
<path fill="#FCB12D" opacity="1.000000" stroke="none" 
	d="
M522.424683,166.011429 
	C520.417297,161.984146 522.181030,159.888306 526.015686,158.578659 
	C549.476746,150.566010 572.900513,142.443008 596.405762,134.563095 
	C597.876404,134.070084 600.290894,134.839310 601.658325,135.846619 
	C609.822388,141.860886 617.807861,148.117645 625.724426,154.738617 
	C621.471680,159.217819 617.081238,163.016373 613.276794,167.331589 
	C603.978821,177.877655 595.077271,188.773315 585.778320,199.318512 
	C577.449524,208.763596 568.863281,217.985580 560.205200,227.130402 
	C559.325073,228.059998 556.466980,228.580658 555.726196,227.928543 
	C552.254944,224.872986 548.284485,221.831497 546.176025,217.885406 
	C540.037109,206.396286 534.586731,194.531021 529.105896,182.702255 
	C526.590027,177.272461 524.634399,171.583084 522.424683,166.011429 
z"/>
<path fill="#FDB231" opacity="1.000000" stroke="none" 
	d="
M370.734711,205.310852 
	C371.410522,203.777206 371.665924,201.718567 372.825989,200.789597 
	C387.487000,189.049194 402.198364,177.366287 417.150635,166.002640 
	C418.782898,164.762131 422.215057,164.897217 424.435913,165.594040 
	C434.579803,168.776733 444.589355,172.387497 454.648041,175.841614 
	C453.805054,185.874985 457.586761,195.008560 460.596100,204.192123 
	C463.179565,212.076096 466.777557,219.627640 469.615967,227.830215 
	C464.681305,230.571014 460.082184,232.860657 455.427612,235.031326 
	C449.482788,237.803696 444.225983,242.854050 436.600616,239.393280 
	C430.123169,236.453491 423.297485,234.282242 416.631195,231.756912 
	C404.266754,227.072998 392.974945,220.841858 383.451355,211.326645 
	C380.314697,208.192780 375.237701,207.000458 371.038330,204.939957 
	C371.005676,204.923920 370.838867,205.181198 370.734711,205.310852 
z"/>
<path fill="#FE9D0F" opacity="1.000000" stroke="none" 
	d="
M245.827728,510.929932 
	C250.228333,511.607117 254.619370,512.784180 259.031311,512.868530 
	C272.755829,513.131287 286.488647,513.020020 300.216858,512.898743 
	C301.137726,512.890625 302.047150,511.591064 303.355408,510.507690 
	C305.476471,510.501495 307.204041,510.879791 309.264771,511.452118 
	C311.065247,511.936676 312.521088,512.319885 314.001709,512.502930 
	C325.722046,513.951904 336.748596,512.824097 346.434723,504.977478 
	C352.738464,499.870850 355.154907,492.689056 358.146179,485.721863 
	C361.172516,501.367584 364.198883,517.013306 367.217529,533.069092 
	C329.115143,533.530212 291.020477,533.603210 252.925827,533.620850 
	C238.619339,533.627502 224.289429,532.963379 210.012192,533.579102 
	C192.042328,534.354004 178.971222,519.457458 181.333817,503.450256 
	C185.408203,503.139465 189.179825,503.540314 191.537064,507.548340 
	C192.010239,508.352844 194.099548,509.053619 194.823944,508.660431 
	C195.848572,508.104279 196.322998,506.501099 196.985535,505.319122 
	C197.966034,503.569946 198.905182,501.797668 200.321167,500.478271 
	C200.779709,503.086456 200.899734,505.260040 200.747757,507.414490 
	C200.556747,510.122375 201.443634,511.338013 204.373291,511.294678 
	C218.190216,511.090363 232.009369,511.037048 245.827728,510.929932 
z"/>
<path fill="#D99522" opacity="1.000000" stroke="none" 
	d="
M522.345703,166.464249 
	C524.634399,171.583084 526.590027,177.272461 529.105896,182.702255 
	C534.586731,194.531021 540.037109,206.396286 546.176025,217.885406 
	C548.284485,221.831497 552.254944,224.872986 555.726196,227.928543 
	C556.466980,228.580658 559.325073,228.059998 560.205200,227.130402 
	C568.863281,217.985580 577.449524,208.763596 585.778320,199.318512 
	C595.077271,188.773315 603.978821,177.877655 613.276794,167.331589 
	C617.081238,163.016373 621.471680,159.217819 625.910889,155.022675 
	C631.656189,157.145126 632.895996,160.848038 631.848633,166.733810 
	C629.669250,178.980682 628.305481,191.380356 626.890808,203.749741 
	C626.570984,206.546066 625.716492,207.607162 622.975647,207.443405 
	C612.329224,206.807236 604.174866,211.510040 597.126465,219.117310 
	C588.088684,228.871765 578.733887,238.332428 570.305298,247.098389 
	C556.084656,241.463318 543.341858,236.372940 530.559570,231.383575 
	C528.031799,230.396896 526.454285,229.149719 526.263062,226.120758 
	C525.017029,206.380753 523.616638,186.650513 522.345703,166.464249 
z"/>
<path fill="#E7E6E5" opacity="1.000000" stroke="none" 
	d="
M531.135132,492.780579 
	C531.505249,478.393036 532.134827,463.811005 532.850525,449.233215 
	C533.786560,430.168823 534.827332,411.109558 535.755920,392.044830 
	C536.813477,370.332703 537.797119,348.617004 538.890747,326.457367 
	C548.154236,320.431030 557.315247,314.809143 566.543701,309.300201 
	C568.673767,308.028625 571.034729,307.143738 573.649658,306.044556 
	C571.999390,314.879822 569.640381,323.689545 568.051453,332.635986 
	C564.812439,350.874451 562.542175,369.299438 558.845276,387.438202 
	C554.746826,407.546844 549.553467,427.434296 544.733582,447.393127 
	C542.285522,457.530121 539.792175,467.663605 536.961609,477.697784 
	C535.528809,482.776886 533.301147,487.631744 531.135132,492.780579 
z"/>
<path fill="#FE9D0F" opacity="1.000000" stroke="none" 
	d="
M300.378510,424.192322 
	C292.361450,421.979492 285.638733,417.509888 278.768066,412.949829 
	C275.495972,410.778168 270.144257,412.005066 265.922455,410.944550 
	C256.822052,408.658630 247.860672,409.320526 239.153275,412.084930 
	C233.544861,413.865448 227.550613,415.205292 223.299149,420.098328 
	C220.000305,423.894958 215.297287,423.810059 210.765259,421.522186 
	C208.804245,420.532227 205.664261,420.621094 203.578461,421.479767 
	C201.385666,422.382477 198.744202,424.333527 200.970428,428.324707 
	C200.868301,433.949768 200.534363,438.980316 200.200439,444.010895 
	C196.321869,448.678162 189.298309,449.749573 186.670685,456.021271 
	C186.213120,457.113403 183.728104,457.356140 181.801147,457.992493 
	C181.351456,448.350311 180.476089,438.630249 181.384781,429.079987 
	C183.016037,411.935730 192.978836,403.604340 209.423370,403.020325 
	C235.848801,402.081879 262.345154,402.282684 288.782410,403.031433 
	C297.263153,403.271637 305.623230,402.076965 314.091431,402.634735 
	C322.707794,403.202271 331.389618,402.775970 340.512085,402.785706 
	C342.526459,410.735870 344.071503,418.685150 345.129120,426.985565 
	C341.933167,426.545319 339.218536,425.774139 336.517151,424.959106 
	C324.540588,421.345673 312.512390,420.320068 300.378510,424.192322 
z"/>
<path fill="#D99522" opacity="1.000000" stroke="none" 
	d="
M370.825806,205.670074 
	C370.838867,205.181198 371.005676,204.923920 371.038330,204.939957 
	C375.237701,207.000458 380.314697,208.192780 383.451355,211.326645 
	C392.974945,220.841858 404.266754,227.072998 416.631195,231.756912 
	C423.297485,234.282242 430.123169,236.453491 436.600616,239.393280 
	C444.225983,242.854050 449.482788,237.803696 455.427612,235.031326 
	C460.082184,232.860657 464.681305,230.571014 469.633087,228.201202 
	C470.380310,228.781433 470.874634,229.461472 471.207214,230.213074 
	C474.911774,238.585434 474.829102,238.485748 467.583557,243.846695 
	C460.923828,248.774170 454.352509,253.834274 447.947510,259.086273 
	C445.519928,261.076843 443.635651,261.487549 440.922943,259.710693 
	C425.852478,249.839325 409.259338,243.650391 391.457947,241.570740 
	C384.371490,240.742859 381.665527,237.722626 379.882111,231.386169 
	C377.458405,222.774933 373.956421,214.467194 370.825806,205.670074 
z"/>
<path fill="#C7C7C6" opacity="1.000000" stroke="none" 
	d="
M760.020691,523.587524 
	C755.278687,524.796936 750.536743,526.006287 745.384644,527.192017 
	C743.240662,527.143433 741.506836,527.118469 739.137695,526.787537 
	C733.269104,524.044983 728.035767,521.608398 723.053955,518.890137 
	C728.844482,515.754639 734.561646,513.193481 739.869080,509.959717 
	C744.577698,507.090912 749.934998,504.816345 752.380310,499.112335 
	C753.171021,497.267883 755.314575,496.000824 756.094604,494.154907 
	C758.564392,488.310425 762.034668,482.436279 762.570923,476.349243 
	C763.154053,469.729065 760.884888,462.857574 759.982666,456.908875 
	C761.306213,453.836060 762.337097,451.087067 763.680054,448.500061 
	C764.217896,447.463989 765.442871,446.784637 766.355103,445.942932 
	C766.895569,446.425140 767.436096,446.907349 767.732666,447.720276 
	C767.297058,448.789429 766.698975,449.791718 766.979370,450.223450 
	C768.843689,453.093933 770.796753,455.921936 772.937378,458.590149 
	C773.760376,459.615936 775.149658,460.187378 776.280945,460.965851 
	C776.280945,460.965851 776.602905,460.904572 776.780701,461.363220 
	C778.627563,467.190796 780.296570,472.559723 781.965576,477.928680 
	C781.588135,478.807709 781.013306,479.654755 780.864868,480.570923 
	C779.739929,487.509583 778.698547,494.461853 777.423096,502.074707 
	C772.552429,510.570374 767.406067,518.002258 760.020691,523.587524 
z"/>
<path fill="#FCB12D" opacity="1.000000" stroke="none" 
	d="
M239.117371,314.561218 
	C240.412216,314.570099 241.244781,314.573700 242.077316,314.581268 
	C254.099319,314.690399 254.091629,314.688202 257.539032,303.309235 
	C258.351715,300.626709 259.235321,297.965698 260.384277,294.359589 
	C262.293091,300.076111 264.247223,304.931061 265.480621,309.962616 
	C266.344635,313.487396 268.066986,314.433014 271.430389,314.224457 
	C275.670624,313.961517 279.939514,314.161072 285.340881,314.161072 
	C281.885345,317.339508 279.242126,319.978210 276.378357,322.350616 
	C273.047852,325.109650 271.176941,327.864624 273.136566,332.544250 
	C274.961609,336.902405 275.831390,341.660583 277.483521,347.527588 
	C272.984467,344.554718 269.311798,342.620514 266.256104,339.973969 
	C263.028809,337.178741 260.378418,337.150787 257.005707,339.553284 
	C253.219803,342.250122 249.129639,344.519775 245.171860,346.975311 
	C244.763611,346.636688 244.355377,346.298065 243.947128,345.959442 
	C245.072739,341.529663 245.934204,337.008728 247.419769,332.703125 
	C248.361008,329.975098 248.434006,328.165039 245.935638,326.266052 
	C241.268082,322.718201 236.828690,318.870148 231.576675,314.557739 
	C234.502731,314.557739 236.578903,314.557739 239.117371,314.561218 
z"/>
<path fill="#FEA416" opacity="1.000000" stroke="none" 
	d="
M769.557800,315.627075 
	C770.739258,315.621094 771.531006,315.621094 772.322754,315.621094 
	C772.454712,315.924042 772.586670,316.226959 772.718628,316.529907 
	C769.216248,318.756531 765.735840,321.018799 762.206543,323.202057 
	C755.850403,327.134033 755.713379,327.653748 758.581238,334.707733 
	C759.704651,337.470978 760.592285,340.334778 761.483826,343.185150 
	C761.817017,344.250244 761.855591,345.407532 762.270691,348.084961 
	C757.482910,344.488220 753.557739,341.857056 750.022949,338.777679 
	C747.466431,336.550507 745.496704,336.128448 742.705811,338.381104 
	C738.130676,342.073914 733.279907,345.425140 727.276306,349.857239 
	C729.500793,343.447754 731.037354,338.400238 733.013611,333.531158 
	C734.477051,329.925354 734.299500,327.473053 730.616516,325.245087 
	C726.424255,322.709045 722.640015,319.498352 717.719543,315.874725 
	C724.219910,315.874725 729.467224,315.712189 734.697510,315.940155 
	C737.511292,316.062744 738.916016,315.166443 739.742065,312.440338 
	C741.319031,307.235840 743.231995,302.133209 746.141968,297.003510 
	C747.742371,301.474335 749.762573,305.847748 750.828552,310.442535 
	C751.959290,315.316376 754.551575,316.849487 759.230103,316.242950 
	C762.513916,315.817291 765.853455,315.821045 769.557800,315.627075 
z"/>
<path fill="#F8022D" opacity="1.000000" stroke="none" 
	d="
M593.890015,301.236206 
	C592.934448,300.534424 592.160950,299.491211 591.181396,298.190582 
	C602.804321,290.966095 614.204956,283.080292 626.590759,277.308441 
	C637.465210,272.240875 651.592407,277.762146 659.060852,287.329041 
	C666.316895,296.623840 667.358582,306.815643 664.650146,317.896820 
	C660.385010,335.347107 656.305969,352.842896 651.941162,370.624207 
	C651.544983,368.026184 650.795044,365.026581 651.276184,362.239471 
	C652.500549,355.146393 655.055298,348.213043 655.646240,341.096954 
	C656.524048,330.525696 660.059204,320.671082 662.131042,310.453979 
	C664.391052,299.309296 658.554321,286.708344 646.609253,281.298828 
	C637.087891,276.986908 628.416565,278.699036 619.983704,284.316284 
	C611.451355,289.999817 602.717590,295.381134 593.890015,301.236206 
z"/>
<path fill="#1EB1F7" opacity="1.000000" stroke="none" 
	d="
M822.169922,486.159851 
	C822.116455,477.011078 822.167297,467.860229 821.981628,458.714142 
	C821.776428,448.603729 820.964661,438.491791 821.119690,428.391266 
	C821.345764,413.656403 822.267212,398.932800 822.635620,384.197998 
	C822.661011,383.181519 820.697693,381.543884 819.401855,381.217743 
	C817.947327,380.851654 816.200195,381.648285 814.153198,381.906219 
	C817.374939,377.692841 821.023804,373.512268 824.672607,369.331665 
	C825.324341,369.700043 825.976074,370.068390 826.627808,370.436768 
	C826.627808,408.617218 826.627808,446.797699 826.187988,485.454834 
	C824.555420,486.007660 823.362671,486.083740 822.169922,486.159851 
z"/>
<path fill="#4DCAF4" opacity="1.000000" stroke="none" 
	d="
M822.147217,486.612305 
	C823.362671,486.083740 824.555420,486.007660 826.104736,485.902222 
	C826.666565,497.324158 826.886719,508.775146 827.072693,520.226685 
	C827.277466,532.840942 827.330688,545.459473 827.723022,558.067688 
	C827.820068,561.187073 826.981873,562.812378 823.472656,562.767639 
	C822.979919,561.551453 822.915710,560.731934 822.851562,559.912354 
	C822.609253,535.629822 822.366882,511.347290 822.147217,486.612305 
z"/>
<path fill="#8CDEF9" opacity="1.000000" stroke="none" 
	d="
M722.802368,519.171875 
	C728.035767,521.608398 733.269104,524.044983 738.701782,526.777588 
	C734.814148,526.254150 730.714478,525.491821 726.648865,524.577759 
	C725.539062,524.328247 724.525513,523.635681 723.478516,523.124390 
	C714.556274,518.767273 714.557068,518.765686 707.326660,525.880127 
	C706.542542,520.953308 703.884216,518.263550 698.974548,518.043396 
	C696.674683,517.940308 694.365356,518.046448 691.520020,517.694275 
	C689.491394,513.431152 688.003052,509.531586 686.514771,505.631958 
	C691.571716,505.240265 696.628723,504.848541 702.282471,504.239655 
	C708.346069,510.616516 713.992676,516.974060 722.802368,519.171875 
z"/>
<path fill="#1EB1F7" opacity="1.000000" stroke="none" 
	d="
M680.339783,541.943970 
	C679.504822,540.875793 678.948792,539.878845 678.547607,538.822937 
	C677.482300,536.019165 677.559021,534.063599 681.457397,533.971741 
	C688.045593,533.816467 694.626343,533.348083 701.669434,533.021484 
	C701.829224,540.793091 701.829224,540.793091 693.090210,541.636414 
	C690.071228,541.400818 687.754456,541.429688 685.437622,541.458557 
	C683.854858,541.635132 682.272095,541.811768 680.339783,541.943970 
z"/>
<path fill="#1EB1F7" opacity="1.000000" stroke="none" 
	d="
M822.518005,559.897705 
	C822.915710,560.731934 822.979919,561.551453 823.074951,562.781860 
	C818.504822,563.445251 817.539673,559.907715 816.061096,556.379883 
	C817.945496,557.360596 820.064941,558.621826 822.518005,559.897705 
z"/>
<path fill="#4DCAF4" opacity="1.000000" stroke="none" 
	d="
M685.685303,541.725891 
	C687.754456,541.429688 690.071228,541.400818 692.689819,541.651184 
	C690.638672,541.951294 688.285889,541.972290 685.685303,541.725891 
z"/>
<path fill="#FCFCFB" opacity="1.000000" stroke="none" 
	d="
M300.134949,424.451965 
	C312.512390,420.320068 324.540588,421.345673 336.517151,424.959106 
	C339.218536,425.774139 341.933167,426.545319 345.007812,427.385620 
	C346.039154,429.997437 346.704376,432.560242 346.941956,435.575623 
	C345.660217,436.925110 344.448242,437.677124 344.015747,438.744904 
	C342.400360,442.732849 340.972717,446.801483 339.599182,450.881775 
	C337.012268,458.566681 334.511780,466.280609 331.710724,474.193054 
	C322.792053,490.704010 308.152985,496.034668 291.172943,496.286316 
	C293.068085,499.658600 294.923645,502.960419 296.779175,506.262207 
	C271.248993,492.131805 266.743378,462.400757 279.714752,441.693695 
	C284.699524,433.736176 291.376129,428.245758 300.134949,424.451965 
z"/>
<path fill="#C7C7C6" opacity="1.000000" stroke="none" 
	d="
M358.153870,485.325989 
	C355.154907,492.689056 352.738464,499.870850 346.434723,504.977478 
	C336.748596,512.824097 325.722046,513.951904 314.001709,512.502930 
	C312.521088,512.319885 311.065247,511.936676 309.314270,511.081970 
	C310.824463,508.950439 312.508820,507.230927 314.433899,505.846008 
	C319.084686,502.500244 324.604462,500.017029 328.423676,495.925659 
	C339.861420,483.672821 344.976105,468.573425 345.984192,451.546570 
	C346.615662,447.065430 347.240814,443.022797 347.865997,438.980194 
	C351.297852,454.296814 354.729706,469.613464 358.153870,485.325989 
z"/>
<path fill="#E7E6E5" opacity="1.000000" stroke="none" 
	d="
M347.873810,438.662415 
	C347.240814,443.022797 346.615662,447.065430 345.632385,451.611694 
	C344.528564,453.521149 343.783478,454.927246 343.037048,456.332581 
	C339.771698,462.480255 338.502411,469.879028 331.975342,473.982483 
	C334.511780,466.280609 337.012268,458.566681 339.599182,450.881775 
	C340.972717,446.801483 342.400360,442.732849 344.015747,438.744904 
	C344.448242,437.677124 345.660217,436.925110 346.895477,435.980591 
	C347.478271,436.736908 347.679962,437.540771 347.873810,438.662415 
z"/>
<path fill="#EFEFEF" opacity="1.000000" stroke="none" 
	d="
M723.053955,518.890137 
	C713.992676,516.974060 708.346069,510.616516 702.573059,503.902222 
	C699.048462,496.926727 695.740479,490.111542 692.650574,483.198883 
	C691.174622,479.896881 691.580688,476.987701 694.640747,474.319153 
	C698.634338,470.836517 702.178040,466.838013 705.958374,462.328979 
	C712.431885,447.279083 725.285034,442.799866 739.454529,439.860413 
	C740.075378,439.245117 740.430847,438.700043 741.139526,438.108765 
	C742.204346,438.034332 742.916077,438.006073 743.791382,438.301941 
	C746.669922,438.701477 749.384888,438.776947 752.099854,438.852417 
	C754.080200,439.115112 756.060547,439.377777 758.749512,439.822632 
	C761.017456,440.342194 762.576843,440.679535 764.136230,441.016846 
	C764.811584,442.435577 765.486877,443.854309 766.258667,445.607971 
	C765.442871,446.784637 764.217896,447.463989 763.680054,448.500061 
	C762.337097,451.087067 761.306213,453.836060 759.982666,456.908875 
	C760.884888,462.857574 763.154053,469.729065 762.570923,476.349243 
	C762.034668,482.436279 758.564392,488.310425 756.094604,494.154907 
	C755.314575,496.000824 753.171021,497.267883 752.380310,499.112335 
	C749.934998,504.816345 744.577698,507.090912 739.869080,509.959717 
	C734.561646,513.193481 728.844482,515.754639 723.053955,518.890137 
z"/>
<path fill="#FDFDFD" opacity="1.000000" stroke="none" 
	d="
M743.627808,437.977844 
	C742.916077,438.006073 742.204346,438.034332 740.870178,438.156982 
	C739.894836,438.811157 739.541992,439.370880 739.189148,439.930603 
	C725.285034,442.799866 712.431885,447.279083 705.946777,461.984253 
	C704.993225,459.682312 703.471069,457.030121 703.306824,454.296356 
	C702.698364,444.168945 702.407410,434.016663 702.253662,423.869812 
	C702.148193,416.902985 702.399414,416.763031 709.128540,416.835022 
	C720.256958,416.954041 731.384216,417.181000 742.798706,418.064728 
	C743.266235,425.170624 743.447021,431.574219 743.627808,437.977844 
z"/>
<path fill="#FCFCFB" opacity="1.000000" stroke="none" 
	d="
M686.242310,505.389893 
	C688.003052,509.531586 689.491394,513.431152 691.074341,517.705322 
	C683.069702,519.696350 674.944336,521.195923 666.885742,522.994812 
	C664.188110,523.596985 661.687805,525.040710 659.046265,525.951904 
	C657.370056,526.530151 655.599854,526.835815 653.425781,527.374084 
	C653.425781,519.547913 653.425781,512.305115 653.425781,504.294189 
	C660.552063,504.294189 667.628601,504.200378 674.700806,504.332184 
	C678.460938,504.402252 682.213684,504.863251 686.242310,505.389893 
z"/>
<path fill="#FCFCFB" opacity="1.000000" stroke="none" 
	d="
M653.384277,471.439606 
	C654.395325,463.070801 654.394836,463.067200 662.765015,461.980927 
	C669.485779,461.108704 676.207947,460.246674 683.677612,459.283691 
	C684.192688,464.509399 684.784973,469.678558 685.133850,474.864075 
	C685.193665,475.752594 684.338440,477.419525 683.697876,477.531006 
	C673.794373,479.254456 663.856445,480.780212 653.352661,482.442566 
	C653.352661,478.445404 653.352661,475.168884 653.384277,471.439606 
z"/>
<path fill="#FCFCFB" opacity="1.000000" stroke="none" 
	d="
M659.062927,439.760559 
	C657.209106,440.038086 655.768188,440.274780 653.247742,440.688751 
	C653.247742,435.309296 653.125610,430.270203 653.378296,425.249939 
	C653.416626,424.488373 655.124878,423.334503 656.182556,423.176178 
	C664.361206,421.951843 672.568420,420.916534 680.770020,419.847839 
	C683.809692,419.451782 684.714783,420.870026 684.806152,423.860291 
	C685.204773,436.904266 685.288696,436.850555 672.288208,438.030640 
	C668.001648,438.419769 663.745728,439.147064 659.062927,439.760559 
z"/>
<path fill="#EBF6FB" opacity="1.000000" stroke="none" 
	d="
M796.482849,427.027649 
	C796.703491,429.722870 796.924194,432.418121 796.652100,435.567261 
	C793.554810,435.714874 790.957825,435.263428 788.344421,435.128174 
	C778.636719,434.625610 768.923645,434.227142 759.212585,433.789581 
	C759.161072,431.476776 759.109558,429.163940 759.567749,426.423767 
	C772.212646,426.340149 784.347717,426.683899 796.482849,427.027649 
z"/>
<path fill="#8CDEF9" opacity="1.000000" stroke="none" 
	d="
M759.133606,434.205322 
	C768.923645,434.227142 778.636719,434.625610 788.344421,435.128174 
	C790.957825,435.263428 793.554810,435.714874 796.582886,436.019714 
	C797.006348,437.781982 797.006348,439.545685 797.006348,441.132477 
	C786.065369,441.132477 775.554871,441.132477 764.590332,441.074646 
	C762.576843,440.679535 761.017456,440.342194 759.129883,439.748505 
	C758.886047,437.868469 758.970337,436.244781 759.133606,434.205322 
z"/>
<path fill="#E7E6E5" opacity="1.000000" stroke="none" 
	d="
M796.541382,426.640442 
	C784.347717,426.683899 772.212646,426.340149 759.623413,425.991455 
	C759.090576,424.605072 759.011902,423.223633 759.289307,421.296234 
	C760.670410,420.339417 761.698303,419.565399 762.719971,419.573639 
	C773.793884,419.662384 784.866882,419.873962 795.940125,420.052002 
	C796.160034,422.119080 796.379944,424.186127 796.541382,426.640442 
z"/>
<path fill="#8CDEF9" opacity="1.000000" stroke="none" 
	d="
M796.029358,419.682495 
	C784.866882,419.873962 773.793884,419.662384 762.719971,419.573639 
	C761.698303,419.565399 760.670410,420.339417 759.317017,420.880676 
	C758.574097,419.019012 758.159546,417.026947 757.610840,414.390076 
	C764.733582,414.390076 771.120361,414.183868 777.487183,414.452209 
	C783.066284,414.687347 788.622864,415.455322 794.664185,415.916992 
	C795.465515,417.001648 795.792053,418.157288 796.029358,419.682495 
z"/>
<path fill="#8CDEF9" opacity="1.000000" stroke="none" 
	d="
M743.791382,438.301941 
	C743.447021,431.574219 743.266235,425.170624 743.142944,418.332092 
	C743.905701,418.264801 745.011414,418.460663 745.254028,419.026581 
	C747.537292,424.352112 749.710205,429.726379 751.813721,435.126007 
	C752.155762,436.004028 752.001404,437.075439 752.088135,438.454956 
	C749.384888,438.776947 746.669922,438.701477 743.791382,438.301941 
z"/>
<path fill="#EBF6FB" opacity="1.000000" stroke="none" 
	d="
M760.484192,523.663574 
	C767.406067,518.002258 772.552429,510.570374 777.402344,502.507446 
	C783.990540,502.804962 790.391479,503.334656 797.216553,503.899414 
	C797.216553,510.114410 797.321228,515.916077 797.181396,521.711914 
	C797.080688,525.887695 793.812988,524.950073 791.329651,524.870239 
	C781.200684,524.544861 771.074768,524.124817 760.484192,523.663574 
z"/>
<path fill="#EBF6FB" opacity="1.000000" stroke="none" 
	d="
M782.317139,478.299561 
	C780.296570,472.559723 778.627563,467.190796 776.924438,461.442017 
	C782.511963,461.095703 788.144836,460.951599 793.746277,461.304901 
	C794.941711,461.380310 796.826111,463.136993 797.014343,464.335602 
	C797.725342,468.864532 797.868591,473.482605 798.271057,478.670441 
	C792.762817,478.670441 787.715759,478.670441 782.317139,478.299561 
z"/>
<path fill="#EFEFEF" opacity="1.000000" stroke="none" 
	d="
M776.192688,460.609192 
	C775.149658,460.187378 773.760376,459.615936 772.937378,458.590149 
	C770.796753,455.921936 768.843689,453.093933 766.979370,450.223450 
	C766.698975,449.791718 767.297058,448.789429 767.809448,447.989136 
	C770.788147,452.035675 773.446289,456.144104 776.192688,460.609192 
z"/>
<path fill="#FCFCFB" opacity="1.000000" stroke="none" 
	d="
M200.302811,444.460083 
	C200.534363,438.980316 200.868301,433.949768 201.291580,428.516846 
	C203.052002,427.159729 204.708618,425.407654 206.396454,425.377075 
	C219.200836,425.145111 232.011337,425.250214 246.023590,425.250214 
	C246.023590,436.230347 246.023590,446.833771 246.023590,457.991455 
	C243.722717,458.129669 241.978790,458.324310 240.234848,458.324280 
	C230.570190,458.324097 220.905563,458.271149 211.240891,458.246887 
	C200.639999,458.220276 200.453049,458.036377 200.451462,447.407867 
	C200.451340,446.575012 200.421310,445.742126 200.302811,444.460083 
z"/>
<path fill="#FCFCFB" opacity="1.000000" stroke="none" 
	d="
M245.822083,510.466064 
	C232.009369,511.037048 218.190216,511.090363 204.373291,511.294678 
	C201.443634,511.338013 200.556747,510.122375 200.747757,507.414490 
	C200.899734,505.260040 200.779709,503.086456 200.695587,500.465149 
	C200.677170,498.283112 200.743591,496.557281 200.803772,493.987793 
	C200.751404,491.431946 200.705276,489.719727 200.659180,488.007538 
	C200.827606,485.572479 200.996033,483.137451 201.177689,480.510986 
	C216.085022,480.510986 230.601898,480.510986 245.816437,480.510986 
	C245.816437,490.534454 245.816437,500.268372 245.822083,510.466064 
z"/>
<path fill="#D8D9D8" opacity="1.000000" stroke="none" 
	d="
M331.710724,474.193054 
	C338.502411,469.879028 339.771698,462.480255 343.037048,456.332581 
	C343.783478,454.927246 344.528564,453.521149 345.626099,452.050262 
	C344.976105,468.573425 339.861420,483.672821 328.423676,495.925659 
	C324.604462,500.017029 319.084686,502.500244 314.433899,505.846008 
	C312.508820,507.230927 310.824463,508.950439 308.981140,510.887939 
	C307.204041,510.879791 305.476471,510.501495 303.369751,510.096710 
	C301.431122,509.260406 299.871643,508.450592 298.267456,507.210815 
	C297.761444,506.558197 297.300079,506.335541 296.838715,506.112885 
	C296.838715,506.112885 296.844727,506.201447 296.811951,506.231812 
	C294.923645,502.960419 293.068085,499.658600 291.172943,496.286316 
	C308.152985,496.034668 322.792053,490.704010 331.710724,474.193054 
z"/>
<path fill="#FE9D0F" opacity="1.000000" stroke="none" 
	d="
M200.307587,488.023621 
	C200.705276,489.719727 200.751404,491.431946 200.710632,493.565002 
	C198.262009,492.244019 196.053955,490.484924 200.307587,488.023621 
z"/>
<path fill="#FCFCFB" opacity="1.000000" stroke="none" 
	d="
M296.914917,506.363068 
	C297.300079,506.335541 297.761444,506.558197 298.055359,506.950745 
	C297.588989,506.951508 297.290070,506.782379 296.914917,506.363068 
z"/>
<path fill="#8CDEF9" opacity="1.000000" stroke="none" 
	d="
M739.454529,439.860413 
	C739.541992,439.370880 739.894836,438.811157 740.516968,438.203186 
	C740.430847,438.700043 740.075378,439.245117 739.454529,439.860413 
z"/>
</svg>